<svg xmlns="http://www.w3.org/2000/svg" width="460" height="470" viewBox="0 0 460 470">
<rect x="100.0" y="20.0" width="260.0" height="50.0" rx="9" fill="#EAF1FB" stroke="#2B5C9E" stroke-width="1.6"/>
<text x="230.0" y="40.1" text-anchor="middle" font-family="DejaVu Sans, Arial, sans-serif" font-size="15" font-weight="bold" fill="#1a1a1a">‫پرسش‬</text>
<text x="230.0" y="60.4" text-anchor="middle" font-family="DejaVu Sans, Arial, sans-serif" font-size="15" font-weight="normal" fill="#1a1a1a">Question</text>
<rect x="100.0" y="115.0" width="260.0" height="50.0" rx="9" fill="#E6F4EA" stroke="#2E7D4F" stroke-width="1.6"/>
<text x="230.0" y="135.1" text-anchor="middle" font-family="DejaVu Sans, Arial, sans-serif" font-size="15" font-weight="bold" fill="#1a1a1a">‫بازیاب‬</text>
<text x="230.0" y="155.4" text-anchor="middle" font-family="DejaVu Sans, Arial, sans-serif" font-size="15" font-weight="normal" fill="#1a1a1a">Retriever</text>
<rect x="70.0" y="210.0" width="320.0" height="50.0" rx="9" fill="#F4F4F4" stroke="#666666" stroke-width="1.6"/>
<text x="230.0" y="230.1" text-anchor="middle" font-family="DejaVu Sans, Arial, sans-serif" font-size="15" font-weight="bold" fill="#1a1a1a">‫اسناد / قطعات مرتبط‬</text>
<text x="230.0" y="250.4" text-anchor="middle" font-family="DejaVu Sans, Arial, sans-serif" font-size="15" font-weight="normal" fill="#1a1a1a">Relevant Documents / Passages</text>
<rect x="70.0" y="305.0" width="320.0" height="50.0" rx="9" fill="#FFF1E0" stroke="#C46A00" stroke-width="1.6"/>
<text x="230.0" y="325.1" text-anchor="middle" font-family="DejaVu Sans, Arial, sans-serif" font-size="15" font-weight="bold" fill="#1a1a1a">‫خواننده / مدل پاسخ‌گو‬</text>
<text x="230.0" y="345.4" text-anchor="middle" font-family="DejaVu Sans, Arial, sans-serif" font-size="15" font-weight="normal" fill="#1a1a1a">Reader / Answering Model</text>
<rect x="100.0" y="400.0" width="260.0" height="50.0" rx="9" fill="#EAF1FB" stroke="#2B5C9E" stroke-width="1.6"/>
<text x="230.0" y="420.1" text-anchor="middle" font-family="DejaVu Sans, Arial, sans-serif" font-size="15" font-weight="bold" fill="#1a1a1a">‫پاسخ‬</text>
<text x="230.0" y="440.4" text-anchor="middle" font-family="DejaVu Sans, Arial, sans-serif" font-size="15" font-weight="normal" fill="#1a1a1a">Answer</text>
<line x1="230.0" y1="70.0" x2="230.0" y2="105.2" stroke="#444" stroke-width="1.6"/>
<polygon points="230.0,114.0 224.0,103.0 236.0,103.0" fill="#444"/>
<line x1="230.0" y1="165.0" x2="230.0" y2="200.2" stroke="#444" stroke-width="1.6"/>
<polygon points="230.0,209.0 224.0,198.0 236.0,198.0" fill="#444"/>
<line x1="230.0" y1="260.0" x2="230.0" y2="295.2" stroke="#444" stroke-width="1.6"/>
<polygon points="230.0,304.0 224.0,293.0 236.0,293.0" fill="#444"/>
<line x1="230.0" y1="355.0" x2="230.0" y2="390.2" stroke="#444" stroke-width="1.6"/>
<polygon points="230.0,399.0 224.0,388.0 236.0,388.0" fill="#444"/>
</svg>
