<?xml version="1.0" encoding="utf-8"?>
<svg xmlns="http://www.w3.org/2000/svg" width="820" height="790" viewBox="0 0 570 600" preserveAspectRatio="xMidYMid slice">
  <rect x="10.0" y="10.0" width="250.0" height="290.0" rx="10" fill="#FFF1E0" fill-opacity="0.35" stroke="#C46A00" stroke-width="1.2" stroke-dasharray="6 4"/>
  <text style="fill: rgb(196, 106, 0); font-family: &quot;B Nazanin&quot;; font-size: 20px; font-weight: 700; text-anchor: middle; white-space: pre;" x="135" y="30">‫تولید اثرانگشت پرس‌وجو‬</text>
  <rect x="25.0" y="46.0" width="220.0" height="38.0" rx="9" fill="#FFF1E0" stroke="#C46A00" stroke-width="1.6"/>
  <text style="fill: rgb(26, 26, 26); font-family: &quot;B Nazanin&quot;; font-size: 20px; text-anchor: middle; white-space: pre;" x="135" y="69.5">‫پرس‌وجوی ورودی‬</text>
  <rect x="25.0" y="106.0" width="220.0" height="38.0" rx="9" fill="#FFF1E0" stroke="#C46A00" stroke-width="1.6"/>
  <text style="fill: rgb(26, 26, 26); font-family: &quot;B Nazanin&quot;; font-size: 20px; text-anchor: middle; white-space: pre;" x="135" y="129.6">‫استخراج عبارات پرس‌وجو‬</text>
  <rect x="25.0" y="167.0" width="220.0" height="46.0" rx="9" fill="#FFF1E0" stroke="#C46A00" stroke-width="1.6"/>
  <rect x="25.0" y="236.0" width="220.0" height="38.0" rx="9" fill="#FFF1E0" stroke="#C46A00" stroke-width="1.6"/>
  <text style="fill: rgb(26, 26, 26); font-family: &quot;B Nazanin&quot;; font-size: 20px; text-anchor: middle; white-space: pre;" x="135" y="259.6">‫اثرانگشت پرس‌وجو‬</text>
  <line x1="135.0" y1="84.0" x2="135.0" y2="97.2" stroke="#444" stroke-width="1.6"/>
  <polygon points="135.0,106.0 129.0,95.0 141.0,95.0" fill="#444"/>
  <line x1="135.0" y1="144.0" x2="135.0" y2="158.2" stroke="#444" stroke-width="1.6"/>
  <polygon points="135.0,167.0 129.0,156.0 141.0,156.0" fill="#444"/>
  <line x1="135.0" y1="213.0" x2="135.0" y2="227.2" stroke="#444" stroke-width="1.6"/>
  <polygon points="135.0,236.0 129.0,225.0 141.0,225.0" fill="#444"/>
  <rect x="10" y="367" width="250" height="180" rx="10" fill="#E6F4EA" fill-opacity="0.35" stroke="#2E7D4F" stroke-width="1.2" stroke-dasharray="6 4"/>
  <text style="fill: rgb(46, 125, 79); font-family: &quot;B Nazanin&quot;; font-size: 20px; font-weight: 700; text-anchor: middle; white-space: pre;" x="135" y="387">‫بازیابی با SF‬</text>
  <rect x="22.5" y="404" width="225" height="56" rx="9" fill="#E6F4EA" stroke="#2E7D4F" stroke-width="1.6"/>
  <text style="fill: rgb(26, 26, 26); font-family: &quot;B Nazanin&quot;; font-size: 20px; text-anchor: middle; white-space: pre;" x="135" y="434.9">‫محاسبه شباهت پرس‌وجو با اسناد</text>
  <rect x="35" y="490" width="200" height="34" rx="9" fill="#E6F4EA" stroke="#2E7D4F" stroke-width="1.6"/>
  <text style="fill: rgb(26, 26, 26); font-family: &quot;B Nazanin&quot;; font-size: 20px; text-anchor: middle; white-space: pre;" x="135" y="511.6">‫لیست رتبه‌بندی SF‬</text>
  <line x1="135" y1="460" x2="135" y2="480.2" stroke="#444" stroke-width="1.6"/>
  <polygon points="135 489 129 478 141 478" fill="#444"/>
  <line x1="135" y1="300" x2="135" y2="356.412" stroke="#444" stroke-width="1.6" style=""/>
  <polygon points="135 367 129 356 141 356" fill="#444"/>
  <rect x="285.0" y="10.0" width="250.0" height="540.0" rx="10" fill="#EAF1FB" fill-opacity="0.35" stroke="#2B5C9E" stroke-width="1.2" stroke-dasharray="6 4"/>
  <text style="fill: rgb(43, 92, 158); font-family: &quot;B Nazanin&quot;; font-size: 20px; font-weight: 700; text-anchor: middle; white-space: pre;" x="410" y="30">‫پیش‌پردازش و نمایه‌سازی اسناد‬</text>
  <rect x="297.0" y="46.0" width="226.0" height="38.0" rx="9" fill="#EAF1FB" stroke="#2B5C9E" stroke-width="1.6"/>
  <text style="fill: rgb(26, 26, 26); font-family: &quot;B Nazanin&quot;; font-size: 20px; text-anchor: middle; white-space: pre;" x="410" y="69.4">‫اسناد خام‬</text>
  <rect x="297.0" y="106.0" width="226.0" height="38.0" rx="9" fill="#EAF1FB" stroke="#2B5C9E" stroke-width="1.6"/>
  <text style="fill: rgb(26, 26, 26); font-family: &quot;B Nazanin&quot;; font-size: 20px; text-anchor: middle; white-space: pre;" x="410" y="129.4">‫استخراج عبارات‬</text>
  <rect x="297.0" y="166.0" width="226.0" height="38.0" rx="9" fill="#EAF1FB" stroke="#2B5C9E" stroke-width="1.6"/>
  <text style="fill: rgb(26, 26, 26); font-family: &quot;B Nazanin&quot;; font-size: 20px; text-anchor: middle; white-space: pre;" x="410" y="189.4">‫ماتریس واژه-مفهوم</text>
  <rect x="297.0" y="229.0" width="226.0" height="52.0" rx="9" fill="#EAF1FB" stroke="#2B5C9E" stroke-width="1.6"/>
  <text style="fill: rgb(26, 26, 26); font-family: &quot;B Nazanin&quot;; font-size: 20px; font-weight: 700; text-anchor: middle; white-space: pre;" x="410" y="257.9">نگاشت به فضایی دوبعدی</text>
  <rect x="297.0" y="304.0" width="226.0" height="52.0" rx="9" fill="#EAF1FB" stroke="#2B5C9E" stroke-width="1.6"/>
  <text style="fill: rgb(26, 26, 26); font-family: &quot;B Nazanin&quot;; font-size: 20px; font-weight: 700; text-anchor: middle; white-space: pre;" x="410" y="333.9">اثرانگشت عبارات</text>
  <rect x="297.0" y="384.0" width="226.0" height="52.0" rx="9" fill="#EAF1FB" stroke="#2B5C9E" stroke-width="1.6"/>
  <text style="fill: rgb(26, 26, 26); font-family: &quot;B Nazanin&quot;; font-size: 20px; font-weight: 700; text-anchor: middle; white-space: pre;" x="410" y="413.9">‫اثرانگشت اسناد‬</text>
  <rect x="297.0" y="469.0" width="226.0" height="52.0" rx="9" fill="#EAF1FB" stroke="#2B5C9E" stroke-width="1.6"/>
  <text style="fill: rgb(26, 26, 26); font-family: &quot;B Nazanin&quot;; font-size: 20px; font-weight: 700; text-anchor: middle; white-space: pre;" x="410" y="496.9">نمایه‌سازی اثرانگشت‌ها</text>
  <line x1="410.0" y1="84.0" x2="410.0" y2="97.2" stroke="#444" stroke-width="1.6"/>
  <polygon points="410.0,106.0 404.0,95.0 416.0,95.0" fill="#444"/>
  <line x1="410.0" y1="144.0" x2="410.0" y2="157.2" stroke="#444" stroke-width="1.6"/>
  <polygon points="410.0,166.0 404.0,155.0 416.0,155.0" fill="#444"/>
  <line x1="410.0" y1="204.0" x2="410.0" y2="220.2" stroke="#444" stroke-width="1.6"/>
  <polygon points="410.0,229.0 404.0,218.0 416.0,218.0" fill="#444"/>
  <line x1="410.0" y1="281.0" x2="410.0" y2="295.2" stroke="#444" stroke-width="1.6"/>
  <polygon points="410.0,304.0 404.0,293.0 416.0,293.0" fill="#444"/>
  <line x1="410.0" y1="356.0" x2="410.0" y2="375.2" stroke="#444" stroke-width="1.6"/>
  <polygon points="410.0,384.0 404.0,373.0 416.0,373.0" fill="#444"/>
  <line x1="410.0" y1="436.0" x2="410.0" y2="460.2" stroke="#444" stroke-width="1.6"/>
  <polygon points="410.0,469.0 404.0,458.0 416.0,458.0" fill="#444"/>
  <line x1="297.0" y1="495.0" x2="272.0" y2="495.0" stroke="#444" stroke-width="1.6"/>
  <line x1="272" y1="494.719" x2="271.041" y2="332.77" stroke="#444" stroke-width="1.6" style=""/>
  <line x1="272.0" y1="440.0" x2="270.8" y2="440.0" stroke="#444" stroke-width="1.6"/>
  <polygon points="136 332 147 326 147 338" fill="#444"/>
  <text style="fill: rgb(26, 26, 26); font-family: &quot;B Nazanin&quot;; font-size: 20px; font-weight: 700; text-anchor: middle; white-space: pre; stroke-width: 1;" x="134.64" y="193.467">اثرانگشت عبارات پرس‌وجو</text>
  <line x1="297.0" y1="495.0" x2="272.0" y2="495.0" stroke="#444" stroke-width="1.6"/>
  <line x1="297.0" y1="495.0" x2="272.0" y2="495.0" stroke="#444" stroke-width="1.6"/>
  <path style="fill: none; stroke: rgb(0, 0, 0);" d="M 271.129 332.926 L 147.291 331.966"/>
</svg>