<?xml version="1.0" encoding="utf-8"?>
<svg xmlns="http://www.w3.org/2000/svg" width="460" height="470" viewBox="0 0 460 470">
  <rect x="100.0" y="20.0" width="260.0" height="50.0" rx="9" fill="#EAF1FB" stroke="#2B5C9E" stroke-width="1.6"/>
  <text style="fill: rgb(26, 26, 26); font-family: &quot;B Nazanin&quot;; font-size: 20px; font-weight: 700; text-anchor: middle; white-space: pre;" x="230" y="40.1">‫پرس‌وجو‬</text>
  <text style="fill: rgb(26, 26, 26); font-family: &quot;B Nazanin&quot;; font-size: 20px; text-anchor: middle; white-space: pre;" x="230" y="63.4">Query</text>
  <rect x="100.0" y="115.0" width="260.0" height="50.0" rx="9" fill="#E6F4EA" stroke="#2E7D4F" stroke-width="1.6"/>
  <text style="fill: rgb(26, 26, 26); font-family: &quot;B Nazanin&quot;; font-size: 20px; font-weight: 700; text-anchor: middle; white-space: pre;" x="230" y="135.1">‫بازیاب‬</text>
  <text style="fill: rgb(26, 26, 26); font-family: &quot;B Nazanin&quot;; font-size: 20px; text-anchor: middle; white-space: pre;" x="230" y="159.4">Retriever</text>
  <rect x="70.0" y="210.0" width="320.0" height="50.0" rx="9" fill="#F4F4F4" stroke="#666666" stroke-width="1.6"/>
  <text style="fill: rgb(26, 26, 26); font-family: &quot;B Nazanin&quot;; font-size: 20px; font-weight: 700; text-anchor: middle; white-space: pre;" x="230" y="230.1">‫اسناد مرتبط‬</text>
  <text style="fill: rgb(26, 26, 26); font-family: &quot;B Nazanin&quot;; font-size: 20px; text-anchor: middle; white-space: pre;" x="230" y="254.4">Relevant Documents</text>
  <rect x="70.0" y="305.0" width="320.0" height="50.0" rx="9" fill="#FFF1E0" stroke="#C46A00" stroke-width="1.6"/>
  <text style="fill: rgb(26, 26, 26); font-family: &quot;B Nazanin&quot;; font-size: 20px; font-weight: 700; text-anchor: middle; white-space: pre;" x="230" y="325.1">‫خواننده / مدل پاسخ‌گو‬</text>
  <text style="fill: rgb(26, 26, 26); font-family: &quot;B Nazanin&quot;; font-size: 20px; text-anchor: middle; white-space: pre;" x="230" y="350.4">Reader / Answering Model</text>
  <rect x="100.0" y="400.0" width="260.0" height="50.0" rx="9" fill="#EAF1FB" stroke="#2B5C9E" stroke-width="1.6"/>
  <text style="fill: rgb(26, 26, 26); font-family: &quot;B Nazanin&quot;; font-size: 20px; font-weight: 700; text-anchor: middle; white-space: pre;" x="230" y="420.1">‫پاسخ‬</text>
  <text style="fill: rgb(26, 26, 26); font-family: &quot;B Nazanin&quot;; font-size: 20px; text-anchor: middle; white-space: pre;" x="230" y="444.4">Answer</text>
  <line x1="230.0" y1="70.0" x2="230.0" y2="105.2" stroke="#444" stroke-width="1.6"/>
  <polygon points="230.0,114.0 224.0,103.0 236.0,103.0" fill="#444"/>
  <line x1="230.0" y1="165.0" x2="230.0" y2="200.2" stroke="#444" stroke-width="1.6"/>
  <polygon points="230.0,209.0 224.0,198.0 236.0,198.0" fill="#444"/>
  <line x1="230.0" y1="260.0" x2="230.0" y2="295.2" stroke="#444" stroke-width="1.6"/>
  <polygon points="230.0,304.0 224.0,293.0 236.0,293.0" fill="#444"/>
  <line x1="230.0" y1="355.0" x2="230.0" y2="390.2" stroke="#444" stroke-width="1.6"/>
  <polygon points="230.0,399.0 224.0,388.0 236.0,388.0" fill="#444"/>
</svg>