<?xml version="1.0" encoding="utf-8"?>
<svg xmlns="http://www.w3.org/2000/svg" width="820" height="330" viewBox="0 0 820 330">
  <rect x="17" y="22" width="110" height="46" rx="9" fill="#EAF1FB" stroke="#2B5C9E" stroke-width="1.6"/>
  <text x="72" y="50.6" text-anchor="middle" font-family="Vazirmatn, Tahoma, 'Noto Sans Arabic', 'DejaVu Sans', Arial, sans-serif" font-size="16" font-weight="bold" fill="#1a1a1a" style="white-space: pre; font-size: 16px;">Query</text>
  <rect x="165.0" y="65.0" width="210.0" height="50.0" rx="9" fill="#E6F4EA" stroke="#2E7D4F" stroke-width="1.6"/>
  <text x="270.0" y="85.5" text-anchor="middle" font-family="Vazirmatn, Tahoma, 'Noto Sans Arabic', 'DejaVu Sans', Arial, sans-serif" font-size="14" font-weight="bold" fill="#1a1a1a" style="white-space: pre;">Semantic Folding</text>
  <text x="270.0" y="104.4" text-anchor="middle" font-family="Vazirmatn, Tahoma, 'Noto Sans Arabic', 'DejaVu Sans', Arial, sans-serif" font-size="14" font-weight="bold" fill="#1a1a1a" style="white-space: pre;">Pipeline</text>
  <rect x="165.0" y="215.0" width="210.0" height="50.0" rx="9" fill="#FFF1E0" stroke="#C46A00" stroke-width="1.6"/>
  <text x="270.0" y="235.5" text-anchor="middle" font-family="Vazirmatn, Tahoma, 'Noto Sans Arabic', 'DejaVu Sans', Arial, sans-serif" font-size="14" font-weight="bold" fill="#1a1a1a" style="white-space: pre;">SPLADE</text>
  <text x="270.0" y="254.4" text-anchor="middle" font-family="Vazirmatn, Tahoma, 'Noto Sans Arabic', 'DejaVu Sans', Arial, sans-serif" font-size="14" font-weight="bold" fill="#1a1a1a" style="white-space: pre;">Pipeline</text>
  <rect x="420.0" y="69.0" width="120.0" height="42.0" rx="9" fill="#F4F4F4" stroke="#666666" stroke-width="1.6"/>
  <text x="480.0" y="94.9" text-anchor="middle" font-family="Vazirmatn, Tahoma, 'Noto Sans Arabic', 'DejaVu Sans', Arial, sans-serif" font-size="14" font-weight="normal" fill="#1a1a1a" style="white-space: pre;">SF Ranking</text>
  <rect x="405.0" y="219.0" width="150.0" height="42.0" rx="9" fill="#F4F4F4" stroke="#666666" stroke-width="1.6"/>
  <text x="480.0" y="244.9" text-anchor="middle" font-family="Vazirmatn, Tahoma, 'Noto Sans Arabic', 'DejaVu Sans', Arial, sans-serif" font-size="14" font-weight="normal" fill="#1a1a1a" style="white-space: pre;">SPLADE Ranking</text>
  <line x1="375.0" y1="90.0" x2="411.2" y2="90.0" stroke="#444" stroke-width="1.6"/>
  <polygon points="420.0,90.0 409.0,96.0 409.0,84.0" fill="#444"/>
  <line x1="375.0" y1="240.0" x2="396.2" y2="240.0" stroke="#444" stroke-width="1.6"/>
  <polygon points="405.0,240.0 394.0,246.0 394.0,234.0" fill="#444"/>
  <rect x="585.0" y="137.0" width="150.0" height="56.0" rx="9" fill="#F3E8FA" stroke="#7B3FA0" stroke-width="1.6"/>
  <text x="660.0" y="160.5" font-family="Vazirmatn, Tahoma, 'Noto Sans Arabic', 'DejaVu Sans', Arial, sans-serif" font-size="14" font-weight="bold" fill="#1a1a1a" style="white-space: pre;" text-anchor="middle">Fusion</text>
  <text x="660.0" y="179.4" font-family="Vazirmatn, Tahoma, 'Noto Sans Arabic', 'DejaVu Sans', Arial, sans-serif" font-size="14" font-weight="normal" fill="#1a1a1a" style="white-space: pre;" text-anchor="middle">(Linear / RRF)</text>
  <line x1="540.0" y1="98.0" x2="583.6" y2="139.0" stroke="#444" stroke-width="1.6"/>
  <polygon points="590.0,145.0 577.9,141.8 586.1,133.1" fill="#444"/>
  <line x1="555.0" y1="232.0" x2="593.6" y2="196.0" stroke="#444" stroke-width="1.6"/>
  <polygon points="600.0,190.0 596.1,201.9 587.9,193.1" fill="#444"/>
  <rect x="580.0" y="271.0" width="160.0" height="38.0" rx="9" fill="#EAF1FB" stroke="#2B5C9E" stroke-width="1.6"/>
  <text x="660.0" y="294.9" text-anchor="middle" font-family="Vazirmatn, Tahoma, 'Noto Sans Arabic', 'DejaVu Sans', Arial, sans-serif" font-size="14" font-weight="bold" fill="#1a1a1a" style="white-space: pre;">Final Ranking</text>
  <line x1="660.0" y1="193.0" x2="660.0" y2="262.2" stroke="#444" stroke-width="1.6"/>
  <polygon points="660.0,271.0 654.0,260.0 666.0,260.0" fill="#444"/>
  <polygon points="164.484 90.259 153.484 96.259 153.484 84.259" fill="#444" style="stroke-width: 1;"/>
  <polyline style="fill: none; stroke: rgb(0, 0, 0);" points="67.093 67.973 67.093 239.042 163.376 239.042"/>
  <polyline style="fill: none; stroke: rgb(0, 0, 0);" points="126.933 43.161 141.808 43.161 141.808 90.346 157.556 90.346"/>
  <polygon points="164.609 238.895 153.609 244.895 153.609 232.895" fill="#444" style="stroke-width: 1;"/>
</svg>